<?xml version="1.0" encoding="utf-8"?>
<!DOCTYPE svg PUBLIC "-//W3C//DTD SVG 20010904//EN" "http://www.w3.org/TR/2001/REC-SVG-20010904/DTD/svg10.dtd">
<svg xmlns="http://www.w3.org/2000/svg" xml:space="preserve" xmlns:xlink="http://www.w3.org/1999/xlink" width="154" height="30" viewBox="11 0 154 30">
<line fill="none" style="stroke:#000000; stroke-width:2;" x1="11" y1="0" x2="11" y2="30"/>
<line fill="none" style="stroke:#000000; stroke-width:1;" x1="13.5" y1="0" x2="13.5" y2="30"/>
<line fill="none" style="stroke:#000000; stroke-width:1;" x1="16.5" y1="0" x2="16.5" y2="30"/>
<line fill="none" style="stroke:#000000; stroke-width:4;" x1="23" y1="0" x2="23" y2="30"/>
<line fill="none" style="stroke:#000000; stroke-width:1;" x1="26.5" y1="0" x2="26.5" y2="30"/>
<line fill="none" style="stroke:#000000; stroke-width:3;" x1="29.5" y1="0" x2="29.5" y2="30"/>
<line fill="none" style="stroke:#000000; stroke-width:1;" x1="32.5" y1="0" x2="32.5" y2="30"/>
<line fill="none" style="stroke:#000000; stroke-width:1;" x1="35.5" y1="0" x2="35.5" y2="30"/>
<line fill="none" style="stroke:#000000; stroke-width:2;" x1="38" y1="0" x2="38" y2="30"/>
<line fill="none" style="stroke:#000000; stroke-width:2;" x1="44" y1="0" x2="44" y2="30"/>
<line fill="none" style="stroke:#000000; stroke-width:4;" x1="48" y1="0" x2="48" y2="30"/>
<line fill="none" style="stroke:#000000; stroke-width:2;" x1="52" y1="0" x2="52" y2="30"/>
<line fill="none" style="stroke:#000000; stroke-width:1;" x1="54.5" y1="0" x2="54.5" y2="30"/>
<line fill="none" style="stroke:#000000; stroke-width:4;" x1="59" y1="0" x2="59" y2="30"/>
<line fill="none" style="stroke:#000000; stroke-width:1;" x1="63.5" y1="0" x2="63.5" y2="30"/>
<line fill="none" style="stroke:#000000; stroke-width:1;" x1="65.5" y1="0" x2="65.5" y2="30"/>
<line fill="none" style="stroke:#000000; stroke-width:1;" x1="68.5" y1="0" x2="68.5" y2="30"/>
<line fill="none" style="stroke:#000000; stroke-width:4;" x1="73" y1="0" x2="73" y2="30"/>
<line fill="none" style="stroke:#000000; stroke-width:1;" x1="76.5" y1="0" x2="76.5" y2="30"/>
<line fill="none" style="stroke:#000000; stroke-width:2;" x1="79" y1="0" x2="79" y2="30"/>
<line fill="none" style="stroke:#000000; stroke-width:1;" x1="82.5" y1="0" x2="82.5" y2="30"/>
<line fill="none" style="stroke:#000000; stroke-width:1;" x1="87.5" y1="0" x2="87.5" y2="30"/>
<line fill="none" style="stroke:#000000; stroke-width:2;" x1="91" y1="0" x2="91" y2="30"/>
<line fill="none" style="stroke:#000000; stroke-width:3;" x1="95.5" y1="0" x2="95.5" y2="30"/>
<line fill="none" style="stroke:#000000; stroke-width:1;" x1="98.5" y1="0" x2="98.5" y2="30"/>
<line fill="none" style="stroke:#000000; stroke-width:1;" x1="103.5" y1="0" x2="103.5" y2="30"/>
<line fill="none" style="stroke:#000000; stroke-width:2;" x1="106" y1="0" x2="106" y2="30"/>
<line fill="none" style="stroke:#000000; stroke-width:1;" x1="109.5" y1="0" x2="109.5" y2="30"/>
<line fill="none" style="stroke:#000000; stroke-width:4;" x1="115" y1="0" x2="115" y2="30"/>
<line fill="none" style="stroke:#000000; stroke-width:1;" x1="118.5" y1="0" x2="118.5" y2="30"/>
<line fill="none" style="stroke:#000000; stroke-width:4;" x1="122" y1="0" x2="122" y2="30"/>
<line fill="none" style="stroke:#000000; stroke-width:3;" x1="126.5" y1="0" x2="126.5" y2="30"/>
<line fill="none" style="stroke:#000000; stroke-width:1;" x1="129.5" y1="0" x2="129.5" y2="30"/>
<line fill="none" style="stroke:#000000; stroke-width:1;" x1="131.5" y1="0" x2="131.5" y2="30"/>
<line fill="none" style="stroke:#000000; stroke-width:2;" x1="137" y1="0" x2="137" y2="30"/>
<line fill="none" style="stroke:#000000; stroke-width:1;" x1="140.5" y1="0" x2="140.5" y2="30"/>
<line fill="none" style="stroke:#000000; stroke-width:2;" x1="143" y1="0" x2="143" y2="30"/>
<line fill="none" style="stroke:#000000; stroke-width:3;" x1="148.5" y1="0" x2="148.5" y2="30"/>
<line fill="none" style="stroke:#000000; stroke-width:1;" x1="151.5" y1="0" x2="151.5" y2="30"/>
<line fill="none" style="stroke:#000000; stroke-width:2;" x1="154" y1="0" x2="154" y2="30"/>
</svg>